<?xml version="1.0" encoding="utf-8"?>
<!-- Generator: Adobe Illustrator 22.1.0, SVG Export Plug-In . SVG Version: 6.00 Build 0)  -->
<svg version="1.1" id="Capa_1" xmlns="http://www.w3.org/2000/svg" xmlns:xlink="http://www.w3.org/1999/xlink" x="0px" y="0px"
	 width="389.7px" height="389.7px" viewBox="0 0 389.7 389.7" style="enable-background:new 0 0 389.7 389.7;" xml:space="preserve"
	>
<style type="text/css">
	.st0{fill:#D9265E;}
</style>
<path class="st0" d="M385,183.9L231.4,30.3c-6.3-6.3-16.2-6.3-21.9,0c-6.3,6.3-6.3,16.2,0,21.9l127,127H15.7
	C6.8,179.2,0,186,0,194.9s6.8,15.7,15.7,15.7h320.8l-127,127c-6.3,6.3-6.3,16.2,0,21.9c3.1,3.1,7.3,4.7,11,4.7s7.8-1.6,11-4.7
	L385,205.8C391.3,199.6,391.3,190.2,385,183.9z"/>
</svg>
