<?xml version="1.0" encoding="utf-8"?>
<!-- Generator: Adobe Illustrator 21.1.0, SVG Export Plug-In . SVG Version: 6.00 Build 0)  -->
<svg version="1.1" id="Layer_1" xmlns="http://www.w3.org/2000/svg" xmlns:xlink="http://www.w3.org/1999/xlink" x="0px" y="0px"
	 width="200px" height="200px" viewBox="0 0 200 200" style="enable-background:new 0 0 200 200;" xml:space="preserve">
<path d="M106.7,135.5L106.7,135.5c0.2-10.2,0,56.2,0,56.2H93.3v-49.5c0-27.4-22.5-46.9-46.7-46.9H13.3c0,27.2,28.9,47.1,46.7,46.9
	h20v13.4H60.7c-30.6,0-57.2-24-60.7-53.5V82h46.3C77,82,103.3,105.6,106.7,135.5z M93.5,61.9L93.5,61.9c-0.2-10.2-0.2,26.8-0.2,26.8
	l13.3,13.4l0.2-33.5c0-27.4,22.5-46.9,46.6-46.9h33.3c0,27.2-28.8,47.1-46.6,46.9h-20V82h19.3c30.5,0,57.1-24,60.6-53.5V8.3h-46.2
	C123.1,8.3,96.9,32,93.5,61.9z"/>
</svg>
