<svg xmlns="http://www.w3.org/2000/svg" width="109" height="44" viewBox="0 0 109 44">
  <metadata><?xpacket begin="﻿" id="W5M0MpCehiHzreSzNTczkc9d"?>
<x:xmpmeta xmlns:x="adobe:ns:meta/" x:xmptk="Adobe XMP Core 5.6-c138 79.159824, 2016/09/14-01:09:01        ">
   <rdf:RDF xmlns:rdf="http://www.w3.org/1999/02/22-rdf-syntax-ns#">
      <rdf:Description rdf:about=""/>
   </rdf:RDF>
</x:xmpmeta>
                                                                                                    
                                                                                                    
                                                                                                    
                                                                                                    
                                                                                                    
                                                                                                    
                                                                                                    
                                                                                                    
                                                                                                    
                                                                                                    
                                                                                                    
                                                                                                    
                                                                                                    
                                                                                                    
                                                                                                    
                                                                                                    
                                                                                                    
                                                                                                    
                                                                                                    
                                                                                                    
                           
<?xpacket end="w"?></metadata>
<defs>
    <style>
      .cls-1 {
        fill: #fff;
        fill-rule: evenodd;
      }
    </style>
  </defs>
  <path class="cls-1" d="M42.367,5.717a3.7,3.7,0,1,0,7.4,0A3.7,3.7,0,1,0,42.367,5.717Zm7,31.676V11.888H42.817V37.394h6.552Zm12.269-18.2a6.108,6.108,0,0,1,4.6-2.16c3,0,4.9,1.44,4.9,4.937V37.394h6.552V21.4c0-7.2-4.1-10.233-9.754-10.233a9.735,9.735,0,0,0-7.052,3.085V11.888h-5.8V37.394h6.552V19.19ZM93.791,11.07c-7,0-12.654,5.862-12.654,13.472,0,8.022,5.552,13.473,12.6,13.473a9.605,9.605,0,0,0,7.453-3.034V37.3H107V2.843h-6.552V13.179A11.579,11.579,0,0,0,93.791,11.07Zm1.1,5.862a7.974,7.974,0,0,1,5.552,2.058V29.942a7.45,7.45,0,0,1-5.6,2.211c-4.151,0-7.1-3.034-7.1-7.611C87.739,19.915,90.89,16.932,94.892,16.932ZM6.54,19.138a6.005,6.005,0,0,1,4.251-2.108c2.851,0,4.451,1.44,4.451,4.937V37.394h6.552V21.4a14.446,14.446,0,0,0-.15-2.108,6.185,6.185,0,0,1,4.4-2.263c2.851,0,4.452,1.44,4.452,4.937V37.394H37.05V21.4c0-7.147-4.1-10.233-9.4-10.233a11.109,11.109,0,0,0-7.652,3.548,8.89,8.89,0,0,0-7.6-3.548,9.116,9.116,0,0,0-6.6,3.188V11.887h-5.8V37.394H6.54V19.138Z"/>
</svg>
