<?xml version="1.0" encoding="UTF-8"?>
<!DOCTYPE svg PUBLIC "-//W3C//DTD SVG 1.1//EN" "http://www.w3.org/Graphics/SVG/1.1/DTD/svg11.dtd">
<!-- Creator: CorelDRAW X8 -->
<svg xmlns="http://www.w3.org/2000/svg" xml:space="preserve" width="102px" height="48px" version="1.1" style="shape-rendering:geometricPrecision; text-rendering:geometricPrecision; image-rendering:optimizeQuality; fill-rule:evenodd; clip-rule:evenodd"
viewBox="0 0 234853 110519"
 xmlns:xlink="http://www.w3.org/1999/xlink">
 <defs>
  <style type="text/css">
   <![CDATA[
    .fil0 {fill:#999999}
    .fil1 {fill:#999999;fill-rule:nonzero}
   ]]>
  </style>
 </defs>
 <g id="Layer_x0020_1">
  <metadata id="CorelCorpID_0Corel-Layer"/>
  <rect class="fil0" x="94402" width="13815" height="13815"/>
  <rect class="fil0" y="96704" width="234853" height="13815"/>
 </g>
 <g id="Слой_x0020_1">
  <metadata id="CorelCorpID_1Corel-Layer"/>
  <path class="fil1" d="M13815 43747c2343,-2717 6258,-4823 9870,-5016 6258,0 10852,4355 10852,11924l0 32234 13815 0 0 -39142c2388,-2887 5041,-4782 8812,-5018 6257,0 9608,4356 9608,11926l0 32234 13815 0 0 -34537c0,-15468 -8266,-22310 -19898,-22310 -6405,284 -12439,3041 -16796,7679 -3908,-5147 -10169,-8030 -16681,-7679 -5052,179 -9841,1554 -13397,5042l0 -3454 -13815 -30 0 55289 13815 0 0 -39142zm194460 -5228c4491,-112 9431,2257 12763,5228l0 23025c-3230,3229 -8269,4872 -12868,4690 -9111,0 -15584,-6566 -15584,-16472 -8,-10015 6908,-16471 15692,-16471l-3 0zm-2414 -12687c-15364,0 -27774,12687 -27774,29158 0,17362 12186,29159 27655,29159 5707,257 11160,-2037 15296,-5865l0 4605 13815 0 0 -82889 -13815 0 0 29933c-4277,-2967 -9947,-4099 -15177,-4101zm-70014 17915c2517,-2930 5640,-4970 9534,-5010 6584,0 11188,3197 11188,10767l0 33385 13815 0 0 -34537c0,-15583 -8866,-22310 -21276,-22310 -4897,29 -9508,2031 -13261,5042l0 -3454 -13816 0 0 55259 13816 0 0 -39142zm-27631 -16117l-13814 0 0 55259 13814 0 0 -55259z"/>
 </g>
</svg>
