<svg xmlns="http://www.w3.org/2000/svg" xml:space="preserve" width="24px" height="24px" version="1.1"
viewBox="0 0 140488 140488"
 xmlns:xlink="http://www.w3.org/1999/xlink">

<path fill="currentColor" d="M35122 23415c6466,0 11707,5241 11707,11707 0,6466 -5241,11707 -11707,11707 -6466,0 -11707,-5241 -11707,-11707 0,-6466 5241,-11707 11707,-11707zm70244 70244c6466,0 11707,5241 11707,11707 0,6466 -5241,11707 -11707,11707 -6466,0 -11707,-5241 -11707,-11707 0,-6466 5241,-11707 11707,-11707zm-35122 0c6466,0 11707,5241 11707,11707 0,6466 -5241,11707 -11707,11707 -6466,0 -11707,-5241 -11707,-11707 0,-6466 5241,-11707 11707,-11707zm-35122 0c6466,0 11707,5241 11707,11707 0,6466 -5241,11707 -11707,11707 -6466,0 -11707,-5241 -11707,-11707 0,-6466 5241,-11707 11707,-11707zm70244 -35122c6466,0 11707,5241 11707,11707 0,6466 -5241,11707 -11707,11707 -6466,0 -11707,-5241 -11707,-11707 0,-6466 5241,-11707 11707,-11707zm-35122 0c6466,0 11707,5241 11707,11707 0,6466 -5241,11707 -11707,11707 -6466,0 -11707,-5241 -11707,-11707 0,-6466 5241,-11707 11707,-11707zm-35122 0c6466,0 11707,5241 11707,11707 0,6466 -5241,11707 -11707,11707 -6466,0 -11707,-5241 -11707,-11707 0,-6466 5241,-11707 11707,-11707zm70244 -35122c6466,0 11707,5241 11707,11707 0,6466 -5241,11707 -11707,11707 -6466,0 -11707,-5241 -11707,-11707 0,-6466 5241,-11707 11707,-11707zm-35122 0c6466,0 11707,5241 11707,11707 0,6466 -5241,11707 -11707,11707 -6466,0 -11707,-5241 -11707,-11707 0,-6466 5241,-11707 11707,-11707z"/>
</svg>
