<?xml version="1.0" encoding="UTF-8"?>
<!DOCTYPE svg PUBLIC "-//W3C//DTD SVG 1.1//EN" "http://www.w3.org/Graphics/SVG/1.1/DTD/svg11.dtd">
<!-- Creator: CorelDRAW X8 -->
<svg xmlns="http://www.w3.org/2000/svg" xml:space="preserve" width="24px" height="24px" version="1.1" style="shape-rendering:geometricPrecision; text-rendering:geometricPrecision; image-rendering:optimizeQuality; fill-rule:evenodd; clip-rule:evenodd"
viewBox="0 0 250435 250435"
 xmlns:xlink="http://www.w3.org/1999/xlink">

 <g id="Layer_x0020_1">
  <metadata id="CorelCorpID_0Corel-Layer"/>
  <circle fill="currentColor" cx="57391" cy="193043" r="15652"/>
  <path fill="currentColor" d="M41739 41739l15652 0c41781,0 79607,16936 106988,44317 27381,27381 44317,65207 44317,106987l0 15653 -20870 0 0 -15653c0,-36020 -14599,-68630 -38202,-92233 -23602,-23602 -56212,-38201 -92233,-38201l-15652 0 0 -20870z"/>
  <path fill="currentColor" d="M41739 83478l11478 0c31408,0 59844,12733 80425,33314 20582,20582 33315,49018 33315,80425l0 11479 -20870 0 0 -11479c0,-25646 -10395,-48866 -27199,-65670 -16805,-16804 -40024,-27199 -65671,-27199l-11478 0 0 -20870z"/>
  <path fill="currentColor" d="M41739 125217l7304 0c21033,0 40078,8528 53863,22312 13784,13784 22311,32830 22311,53862l0 7305 -20869 0 0 -7305c0,-15273 -6190,-29100 -16197,-39107 -10007,-10007 -23834,-16197 -39108,-16197l-7304 0 0 -20870z"/>
 </g>
</svg>
