<svg xmlns="http://www.w3.org/2000/svg" width="109" height="44"><path d="M42.367 5.717a3.7 3.7 0 1 0 7.4 0 3.7 3.7 0 1 0-7.4 0zm7 31.676V11.888h-6.55v25.506h6.552zm12.269-18.2a6.108 6.108 0 0 1 4.6-2.16c3 0 4.9 1.44 4.9 4.937v15.424h6.552V21.4c0-7.2-4.1-10.233-9.754-10.233a9.735 9.735 0 0 0-7.052 3.085v-2.364h-5.8v25.506h6.552V19.19zm32.155-8.123c-7 0-12.654 5.862-12.654 13.472 0 8.022 5.552 13.473 12.6 13.473a9.605 9.605 0 0 0 7.453-3.034V37.3H107V2.843h-6.552v10.336a11.579 11.579 0 0 0-6.657-2.109zm1.1 5.862a7.974 7.974 0 0 1 5.552 2.058v10.952a7.45 7.45 0 0 1-5.6 2.211c-4.151 0-7.1-3.034-7.1-7.611-.004-4.627 3.147-7.61 7.149-7.61zM6.54 19.138a6.005 6.005 0 0 1 4.251-2.108c2.851 0 4.451 1.44 4.451 4.937v15.427h6.552V21.4a14.446 14.446 0 0 0-.15-2.108 6.185 6.185 0 0 1 4.4-2.263c2.851 0 4.452 1.44 4.452 4.937v15.428h6.554V21.4c0-7.147-4.1-10.233-9.4-10.233a11.109 11.109 0 0 0-7.652 3.548 8.89 8.89 0 0 0-7.6-3.548 9.116 9.116 0 0 0-6.6 3.188v-2.468h-5.8v25.507H6.54V19.138z" fill="#fff" fill-rule="evenodd"/></svg>