<svg xmlns="http://www.w3.org/2000/svg" width="102" height="48" viewBox="0 0 234853 110519" shape-rendering="geometricPrecision" text-rendering="geometricPrecision" image-rendering="optimizeQuality" fill-rule="evenodd" clip-rule="evenodd"><path d="M94402 0h13815v13815H94402zM0 96704h234853v13815H0z" fill="#999"/><path d="M13815 43747c2343-2717 6258-4823 9870-5016 6258 0 10852 4355 10852 11924v32234h13815V43747c2388-2887 5041-4782 8812-5018 6257 0 9608 4356 9608 11926v32234h13815V48352c0-15468-8266-22310-19898-22310-6405 284-12439 3041-16796 7679-3908-5147-10169-8030-16681-7679-5052 179-9841 1554-13397 5042v-3454L0 27600v55289h13815V43747zm194460-5228c4491-112 9431 2257 12763 5228v23025c-3230 3229-8269 4872-12868 4690-9111 0-15584-6566-15584-16472-8-10015 6908-16471 15692-16471h-3zm-2414-12687c-15364 0-27774 12687-27774 29158 0 17362 12186 29159 27655 29159 5707 257 11160-2037 15296-5865v4605h13815V0h-13815v29933c-4277-2967-9947-4099-15177-4101zm-70014 17915c2517-2930 5640-4970 9534-5010 6584 0 11188 3197 11188 10767v33385h13815V48352c0-15583-8866-22310-21276-22310-4897 29-9508 2031-13261 5042v-3454h-13816v55259h13816V43747zm-27631-16117H94402v55259h13814V27630z" fill="#999" fill-rule="nonzero"/></svg>