<svg xmlns="http://www.w3.org/2000/svg" width="24" height="24" viewBox="0 0 140488 140488"><path fill="currentColor" d="M35122 23415c6466 0 11707 5241 11707 11707s-5241 11707-11707 11707-11707-5241-11707-11707 5241-11707 11707-11707zm70244 70244c6466 0 11707 5241 11707 11707s-5241 11707-11707 11707-11707-5241-11707-11707 5241-11707 11707-11707zm-35122 0c6466 0 11707 5241 11707 11707s-5241 11707-11707 11707-11707-5241-11707-11707 5241-11707 11707-11707zm-35122 0c6466 0 11707 5241 11707 11707s-5241 11707-11707 11707-11707-5241-11707-11707 5241-11707 11707-11707zm70244-35122c6466 0 11707 5241 11707 11707s-5241 11707-11707 11707-11707-5241-11707-11707 5241-11707 11707-11707zm-35122 0c6466 0 11707 5241 11707 11707s-5241 11707-11707 11707-11707-5241-11707-11707 5241-11707 11707-11707zm-35122 0c6466 0 11707 5241 11707 11707s-5241 11707-11707 11707-11707-5241-11707-11707 5241-11707 11707-11707zm70244-35122c6466 0 11707 5241 11707 11707s-5241 11707-11707 11707-11707-5241-11707-11707 5241-11707 11707-11707zm-35122 0c6466 0 11707 5241 11707 11707s-5241 11707-11707 11707-11707-5241-11707-11707 5241-11707 11707-11707z"/></svg>