<svg xmlns="http://www.w3.org/2000/svg" width="24" height="24" viewBox="0 0 250435 250435" shape-rendering="geometricPrecision" text-rendering="geometricPrecision" image-rendering="optimizeQuality" fill-rule="evenodd" clip-rule="evenodd"><g fill="currentColor"><circle cx="57391" cy="193043" r="15652"/><path d="M41739 41739h15652c41781 0 79607 16936 106988 44317s44317 65207 44317 106987v15653h-20870v-15653c0-36020-14599-68630-38202-92233-23602-23602-56212-38201-92233-38201H41739V41739z"/><path d="M41739 83478h11478c31408 0 59844 12733 80425 33314 20582 20582 33315 49018 33315 80425v11479h-20870v-11479c0-25646-10395-48866-27199-65670-16805-16804-40024-27199-65671-27199H41739V83478z"/><path d="M41739 125217h7304c21033 0 40078 8528 53863 22312 13784 13784 22311 32830 22311 53862v7305h-20869v-7305c0-15273-6190-29100-16197-39107s-23834-16197-39108-16197h-7304v-20870z"/></g></svg>